<svg id="Layer_1" data-name="Layer 1" xmlns="http://www.w3.org/2000/svg" viewBox="0 0 198.43 198.43"><defs><style>.cls-1,.cls-6,.cls-7{fill:none;}.cls-2{fill:#90c25e;}.cls-3{fill:#fff;}.cls-4{fill:#61b522;}.cls-5{fill:#e3f206;}.cls-6,.cls-7{stroke:#fff;stroke-miterlimit:10;}.cls-6{stroke-width:0.66px;}.cls-7{stroke-width:0.66px;}.cls-8{opacity:0;}</style></defs><title>Artboard 1</title><polygon class="cls-1" points="99.25 99.25 99.25 99.25 99.24 99.24 99.24 99.24 99.23 99.24 99.23 99.25 99.22 99.25 99.23 99.26 99.23 99.27 99.24 99.27 99.24 99.27 99.25 99.26 99.25 99.25"/><path class="cls-2" d="M99.24,61a37.3,37.3,0,0,1,32-18.15,37.28,37.28,0,0,0-64,0A37.3,37.3,0,0,1,99.24,61Z"/><polygon class="cls-3" points="99.24 99.24 99.24 99.23 99.23 99.24 99.24 99.24 99.24 99.24"/><polygon class="cls-3" points="99.23 99.27 99.24 99.28 99.24 99.27 99.24 99.27 99.23 99.27"/><path class="cls-2" d="M99.24,137.54a37.3,37.3,0,0,1-32,18.15,37.29,37.29,0,0,0,64,0,37.3,37.3,0,0,1-32-18.15Z"/><path class="cls-3" d="M99.23,99.24h0Z"/><path class="cls-2" d="M48.09,86.41a37.07,37.07,0,0,1,19.16-5.29,37.28,37.28,0,0,1,0-38.3,37.29,37.29,0,0,0-32,56.43A37.07,37.07,0,0,1,48.09,86.41Z"/><path class="cls-4" d="M67.25,81.12a37.28,37.28,0,0,1,32,18.12h0a37.27,37.27,0,0,1,0-38.26,37.3,37.3,0,0,0-32-18.15,37.28,37.28,0,0,0,0,38.3Z"/><path class="cls-3" d="M99.25,99.26h0v0Z"/><path class="cls-2" d="M150.38,112.1a37.07,37.07,0,0,1-19.16,5.29,37.28,37.28,0,0,1,0,38.3,37.3,37.3,0,0,0,32-56.44A37.13,37.13,0,0,1,150.38,112.1Z"/><path class="cls-4" d="M131.22,117.39a37.26,37.26,0,0,1-32-18.12h0a37.29,37.29,0,0,1,0,38.26,37.3,37.3,0,0,0,32,18.15,37.28,37.28,0,0,0,0-38.3Z"/><path class="cls-3" d="M99.25,99.25h0Z"/><path class="cls-2" d="M131.22,81.12a37.34,37.34,0,0,1,32,18.13,37.29,37.29,0,0,0-32-56.43,37.28,37.28,0,0,1,0,38.3Z"/><path class="cls-4" d="M99.24,61a37.29,37.29,0,0,1,0,38.26h0a37.26,37.26,0,0,1,32-18.12,37.28,37.28,0,0,0,0-38.3A37.3,37.3,0,0,0,99.24,61Z"/><path class="cls-5" d="M99.24,61a37.27,37.27,0,0,0,0,38.26A37.29,37.29,0,0,0,99.24,61Z"/><path class="cls-4" d="M150.38,86.41a37.07,37.07,0,0,0-19.16-5.29,37.26,37.26,0,0,1-32,18.12h0v0a37.24,37.24,0,0,1,32,18.12,37.32,37.32,0,0,0,32-18.14A37.19,37.19,0,0,0,150.38,86.41Z"/><path class="cls-5" d="M131.22,81.12a37.26,37.26,0,0,0-32,18.12A37.26,37.26,0,0,0,131.22,81.12Z"/><path class="cls-5" d="M99.26,99.27a37.26,37.26,0,0,0,32,18.12A37.24,37.24,0,0,0,99.26,99.27Z"/><path class="cls-2" d="M67.25,117.39a37.28,37.28,0,0,1-32-18.14,37.29,37.29,0,0,0,32,56.44,37.28,37.28,0,0,1,0-38.3Z"/><path class="cls-3" d="M99.22,99.25v0h0Z"/><path class="cls-4" d="M99.24,137.54a37.27,37.27,0,0,1,0-38.26h0a37.28,37.28,0,0,1-32,18.12,37.28,37.28,0,0,0,0,38.3,37.3,37.3,0,0,0,32-18.15Z"/><path class="cls-4" d="M48.09,112.1a37.07,37.07,0,0,0,19.16,5.29,37.24,37.24,0,0,1,32-18.12v0h0a37.26,37.26,0,0,1-32-18.12,37.3,37.3,0,0,0-32,18.13A37,37,0,0,0,48.09,112.1Z"/><path class="cls-5" d="M67.25,81.12a37.26,37.26,0,0,0,32,18.12A37.28,37.28,0,0,0,67.25,81.12Z"/><path class="cls-5" d="M67.25,117.39a37.28,37.28,0,0,0,32-18.12A37.24,37.24,0,0,0,67.25,117.39Z"/><path class="cls-5" d="M99.24,137.54a37.29,37.29,0,0,0,0-38.26A37.27,37.27,0,0,0,99.24,137.54Z"/><circle class="cls-6" cx="99.24" cy="61.96" r="37.28"/><circle class="cls-7" cx="99.24" cy="136.55" r="37.28"/><circle class="cls-7" cx="67.23" cy="80.1" r="37.28"/><circle class="cls-7" cx="131.24" cy="118.4" r="37.28"/><circle class="cls-7" cx="131.24" cy="80.1" r="37.28"/><circle class="cls-7" cx="67.23" cy="118.4" r="37.28"/><g class="cls-8"><path class="cls-4" d="M99.21,24.59A74.62,74.62,0,1,1,24.59,99.21,74.62,74.62,0,0,1,99.21,24.59m0-2.81a77.44,77.44,0,1,0,77.44,77.43A77.52,77.52,0,0,0,99.21,21.78Z"/></g></svg>