<?xml version="1.0" encoding="utf-8"?>
<!-- Generator: Adobe Illustrator 23.0.1, SVG Export Plug-In . SVG Version: 6.00 Build 0)  -->
<svg version="1.1" id="Layer_1" xmlns="http://www.w3.org/2000/svg" xmlns:xlink="http://www.w3.org/1999/xlink" x="0px" y="0px"
	 viewBox="0 0 639.4 198.4" style="enable-background:new 0 0 639.4 198.4;" xml:space="preserve">
<style type="text/css">
	.st0{fill:none;}
	.st1{fill:#90C25E;}
	.st2{fill:#FFFFFF;}
	.st3{fill:#61B522;}
	.st4{fill:#E3F206;}
	.st5{fill:none;stroke:#FFFFFF;stroke-width:0.1962;stroke-miterlimit:10;}
	.st6{opacity:0;}
	.st7{fill:#61B522;stroke:#61B522;stroke-width:1.1745;stroke-miterlimit:10;}
</style>
<g>
	<g>
		<polygon class="st0" points="82.9,79.5 82.9,79.5 82.9,79.5 82.9,79.5 82.9,79.5 82.9,79.5 82.9,79.5 82.9,79.5 82.9,79.5 
			82.9,79.5 82.9,79.5 82.9,79.5 		"/>
		<path class="st1" d="M82.9,68.1c0.9-1.5,2.2-2.9,3.8-3.8c1.8-1.1,3.8-1.6,5.7-1.6c-1.9-3.2-5.5-5.4-9.5-5.4s-7.6,2.2-9.5,5.4
			c1.9,0,3.9,0.5,5.7,1.6C80.7,65.2,82,66.6,82.9,68.1z"/>
		<polygon class="st2" points="82.9,79.5 82.9,79.5 82.9,79.5 82.9,79.5 		"/>
		<polygon class="st2" points="82.9,79.5 82.9,79.5 82.9,79.5 82.9,79.5 		"/>
		<path class="st1" d="M82.9,90.9c-0.9,1.5-2.2,2.9-3.8,3.8c-1.8,1.1-3.8,1.6-5.7,1.6c1.9,3.2,5.5,5.4,9.5,5.4s7.6-2.2,9.5-5.4
			c-1.9,0-3.9-0.5-5.7-1.6C85.1,93.8,83.8,92.5,82.9,90.9z"/>
		<polygon class="st2" points="82.9,79.5 82.9,79.5 82.9,79.5 82.9,79.5 		"/>
		<path class="st1" d="M67.7,75.7c1.8-1.1,3.8-1.6,5.7-1.6c-1-1.7-1.6-3.6-1.6-5.7c0-2.1,0.6-4,1.6-5.7c-3.8,0-7.5,1.9-9.5,5.4
			c-2.2,3.6-2,8,0,11.4C64.7,78,66,76.7,67.7,75.7z"/>
		<path class="st3" d="M73.4,74.1c3.8,0,7.5,1.9,9.5,5.4c0,0,0,0,0,0c0,0,0,0,0,0c-2.2-3.6-2-8,0-11.4c-0.9-1.5-2.2-2.9-3.8-3.8
			c-1.8-1.1-3.8-1.6-5.7-1.6c-1,1.7-1.6,3.6-1.6,5.7C71.8,70.5,72.4,72.4,73.4,74.1z"/>
		<polygon class="st2" points="82.9,79.5 82.9,79.5 82.9,79.5 82.9,79.5 		"/>
		<path class="st1" d="M98.2,83.3c-1.8,1.1-3.8,1.6-5.7,1.6c1,1.7,1.6,3.6,1.6,5.7c0,2.1-0.6,4-1.6,5.7c3.8,0,7.5-1.9,9.5-5.4
			c2.2-3.6,2-8,0-11.4C101.1,81,99.8,82.4,98.2,83.3z"/>
		<path class="st3" d="M92.4,84.9c-3.8,0-7.5-1.9-9.5-5.4c0,0,0,0,0,0c0,0,0,0,0,0c2.2,3.6,2,8,0,11.4c0.9,1.5,2.2,2.9,3.8,3.8
			c1.8,1.1,3.8,1.6,5.7,1.6c1-1.7,1.6-3.6,1.6-5.7C94,88.5,93.4,86.6,92.4,84.9z"/>
		<polygon class="st2" points="82.9,79.5 82.9,79.5 82.9,79.5 82.9,79.5 		"/>
		<path class="st1" d="M92.4,74.1c1.9,0,3.9,0.5,5.7,1.6c1.6,1,2.9,2.3,3.8,3.8c2-3.4,2.2-7.8,0-11.4c-2.1-3.5-5.8-5.4-9.5-5.4
			c1,1.7,1.6,3.6,1.6,5.7C94,70.5,93.4,72.4,92.4,74.1z"/>
		<path class="st3" d="M82.9,68.1c2,3.4,2.2,7.8,0,11.4c0,0,0,0,0,0c0,0,0,0,0,0c2.1-3.5,5.8-5.4,9.5-5.4c1-1.7,1.6-3.6,1.6-5.7
			c0-2.1-0.6-4-1.6-5.7c-1.9,0-3.9,0.5-5.7,1.6C85.1,65.2,83.8,66.6,82.9,68.1z"/>
		<path class="st4" d="M82.9,68.1c-2,3.4-2.2,7.8,0,11.4C85.1,75.9,84.9,71.5,82.9,68.1z"/>
		<path class="st3" d="M98.2,75.7c-1.8-1.1-3.8-1.6-5.7-1.6c-1.9,3.2-5.5,5.4-9.5,5.4c0,0,0,0,0,0c0,0,0,0,0,0c4,0,7.6,2.2,9.5,5.4
			c1.9,0,3.9-0.5,5.7-1.6c1.6-1,2.9-2.3,3.8-3.8C101.1,78,99.8,76.7,98.2,75.7z"/>
		<path class="st4" d="M92.4,74.1c-3.8,0-7.5,1.9-9.5,5.4C87,79.5,90.5,77.3,92.4,74.1z"/>
		<path class="st4" d="M82.9,79.5c2.1,3.5,5.8,5.4,9.5,5.4C90.5,81.7,87,79.5,82.9,79.5z"/>
		<path class="st1" d="M73.4,84.9c-1.9,0-3.9-0.5-5.7-1.6c-1.6-1-2.9-2.3-3.8-3.8c-2,3.4-2.2,7.8,0,11.4c2.1,3.5,5.8,5.4,9.5,5.4
			c-1-1.7-1.6-3.6-1.6-5.7C71.8,88.5,72.4,86.6,73.4,84.9z"/>
		<polygon class="st2" points="82.9,79.5 82.9,79.5 82.9,79.5 82.9,79.5 		"/>
		<path class="st3" d="M82.9,90.9c-2-3.4-2.2-7.8,0-11.4c0,0,0,0,0,0c0,0,0,0,0,0c-2.1,3.5-5.8,5.4-9.5,5.4c-1,1.7-1.6,3.6-1.6,5.7
			c0,2.1,0.6,4,1.6,5.7c1.9,0,3.9-0.5,5.7-1.6C80.7,93.8,82,92.5,82.9,90.9z"/>
		<path class="st3" d="M67.7,83.3c1.8,1.1,3.8,1.6,5.7,1.6c1.9-3.2,5.5-5.4,9.5-5.4c0,0,0,0,0,0c0,0,0,0,0,0c-4,0-7.6-2.2-9.5-5.4
			c-1.9,0-3.9,0.5-5.7,1.6c-1.6,1-2.9,2.3-3.8,3.8C64.7,81,66,82.4,67.7,83.3z"/>
		<path class="st4" d="M73.4,74.1c1.9,3.2,5.5,5.4,9.5,5.4C80.8,76,77.1,74.1,73.4,74.1z"/>
		<path class="st4" d="M73.4,84.9c3.8,0,7.5-1.9,9.5-5.4C78.9,79.5,75.3,81.7,73.4,84.9z"/>
		<path class="st4" d="M82.9,90.9c2-3.4,2.2-7.8,0-11.4C80.7,83.2,80.9,87.5,82.9,90.9z"/>
	</g>
	<g>
		<g>
			<circle class="st5" cx="82.9" cy="68.4" r="11.1"/>
			<circle class="st5" cx="82.9" cy="90.6" r="11.1"/>
		</g>
		<g>
			<circle class="st5" cx="73.4" cy="73.8" r="11.1"/>
			<circle class="st5" cx="92.5" cy="85.2" r="11.1"/>
		</g>
		<g>
			<circle class="st5" cx="92.5" cy="73.8" r="11.1"/>
			<circle class="st5" cx="73.4" cy="85.2" r="11.1"/>
		</g>
	</g>
	<g class="st6">
		<g>
			<path class="st3" d="M82.9,57.2c12.3,0,22.3,10,22.3,22.3s-10,22.3-22.3,22.3s-22.3-10-22.3-22.3S70.6,57.2,82.9,57.2 M82.9,56.4
				c-12.7,0-23.1,10.4-23.1,23.1s10.4,23.1,23.1,23.1S106,92.2,106,79.5S95.6,56.4,82.9,56.4L82.9,56.4z"/>
		</g>
	</g>
	<g>
		<path class="st7" d="M147.9,58.2h1.6v-0.8h-11.9v0.8h1.9l-23.4,42.6h-5.3v0.8h11.9v-0.8h-5.5l11.2-20.5h22.6l9.6,20.5h-2.1v0.8
			h11.9v-0.8H168L147.9,58.2z M128.9,79.6l11.7-21.4h0l10,21.4H128.9z"/>
		<path class="st7" d="M308,58.3h1.6v-0.8h-11.9v0.8h1.9l-23.4,42.6h-5.3v0.8h11.9v-0.8h-5.5l11.2-20.5h22.6l9.6,20.5h-2.1v0.8h11.9
			v-0.8H328L308,58.3z M289,79.7l11.7-21.4h0l10,21.4H289z"/>
		<path class="st7" d="M574.9,100.9l-20-42.6h1.6v-0.8h-11.9v0.8h1.9l-23.4,42.6h-5.3v0.8h11.9v-0.8h-5.5l11.2-20.5H558l9.6,20.5
			h-2.1v0.8h11.9v-0.8H574.9z M535.9,79.7l11.7-21.4h0l10,21.4H535.9z"/>
		<polygon class="st7" points="263.9,97.6 262.8,97.6 262.8,100.9 236.8,100.9 236.8,58.3 239.1,58.3 239.1,57.6 227.2,57.6 
			227.2,58.3 229.5,58.3 229.5,100.9 227.2,100.9 227.2,101.7 263.9,101.7 263.9,101.7 263.9,100.9 263.9,100.9 		"/>
		<polygon class="st7" points="391.8,57.6 386.4,57.6 386.4,58.3 391.8,58.3 391.8,99.8 351.4,57.6 338.3,57.6 338.3,58.3 
			343.7,58.3 343.7,100.9 338.3,100.9 338.3,101.7 350.2,101.7 350.2,100.9 344.8,100.9 344.8,58.3 344.9,58.3 386.4,101.7 
			386.4,101.7 386.4,101.7 398.3,101.7 398.3,100.9 392.9,100.9 392.9,58.3 398.3,58.3 398.3,57.6 392.9,57.6 		"/>
		<polygon class="st7" points="405.8,57.6 405.8,61.6 406.9,61.6 406.9,58.3 423.9,58.3 423.9,100.9 421.7,100.9 421.7,101.7 
			433.6,101.7 433.6,100.9 431.1,100.9 431.1,58.3 447.9,58.3 447.9,61.6 449.1,61.6 449.1,57.6 		"/>
		<polygon class="st7" points="459.1,57.6 456.9,57.6 456.9,58.3 459.1,58.3 459.1,100.9 456.9,100.9 456.9,101.7 459.1,101.7 
			466.3,101.7 468.8,101.7 468.8,100.9 466.3,100.9 466.3,58.3 468.8,58.3 468.8,57.6 466.3,57.6 		"/>
		<path class="st7" d="M521.5,79.6c0-3-0.9-5.9-2.6-8.6c-1.6-2.6-4-5-7-7c-6.1-4.1-14.1-6.4-22.7-6.4v0h-3h-7.2h-2.4v0.8h2.4v42.6
			h-2.4v0.8h12.7v0c8.6,0,16.6-2.3,22.7-6.4c3-2,5.3-4.4,7-7C520.7,85.5,521.5,82.6,521.5,79.6z M489.2,100.9L489.2,100.9l-2.9,0
			V58.3h2.9v0c17.4,0,31.6,9.6,31.6,21.3C520.8,91.4,506.6,100.9,489.2,100.9z"/>
		<path class="st7" d="M215,60.9c-3.1-2.1-7.2-3.3-11.6-3.3v0h-16h-7.2h-2.3v0.8h0v0h2.3v42.6h-2.3v0.8h0v0h11.9v-0.8h0v0h-2.3V80.4
			h16.3v0c4.2-0.1,8.2-1.2,11.2-3.3c3.2-2.2,4.9-5,4.9-8.1C219.9,65.9,218.1,63,215,60.9z M203.4,79.6h-16V58.3l15.9,0v0
			c8.8,0,15.9,4.8,15.9,10.7C219.1,74.8,212.1,79.6,203.4,79.6z"/>
	</g>
	<g>
		<path class="st3" d="M109.7,126.5h1.1v-6.6h-1.1v-0.8h3.4v0.8H112v6.6h2.9v-2.4h1v3.2h-6.3V126.5z"/>
		<path class="st3" d="M130.3,119.1v0.8h-0.7c0.3,1,0.6,1.8,0.8,2.3c0.2,0.6,0.3,1,0.4,1.1c0.2,0.5,0.4,1.1,0.5,1.6
			c0.2,0.5,0.3,1,0.4,1.5h1v0.8h-3.2v-0.8h1.1l-0.6-2.2h-3.2l-0.6,2.2h1.1v0.8h-3.2v-0.8h1c0.1-0.5,0.3-1,0.5-1.6
			c0.2-0.6,0.3-1.1,0.5-1.7c0.2-0.6,0.4-1.1,0.6-1.7c0.2-0.6,0.4-1.1,0.5-1.6h-0.7v-0.8H130.3z M129.7,123.4
			c-0.1-0.3-0.2-0.8-0.4-1.3c-0.2-0.6-0.4-1.3-0.7-2.2H128c-0.3,0.9-0.5,1.6-0.7,2.2c-0.2,0.6-0.3,1-0.4,1.3H129.7z"/>
		<path class="st3" d="M151.8,119.9h-1v-0.8h3.3v0.8h-1l2.3,6.1l2.2-6.1h-1v-0.8h3.2v0.8h-1l-2.9,7.4h-1.1L151.8,119.9z"/>
		<path class="st3" d="M167.6,126.5h1.1v-6.6h-1.1v-0.8h7v2.3h-0.9v-1.5h-3.8v2.7h2.6v-0.8h0.7v2.6h-0.7v-0.8h-2.6v2.9h3.8V125h0.9
			v2.4h-7V126.5z"/>
		<path class="st3" d="M183.3,126.5h1.2v-6.6h-1.2v-0.8h3.9c0.5,0,0.9,0.1,1.2,0.2c0.3,0.1,0.6,0.2,0.8,0.4c0.2,0.2,0.4,0.4,0.5,0.7
			c0.1,0.3,0.2,0.6,0.2,0.9c0,0.6-0.2,1-0.5,1.4c-0.3,0.4-0.8,0.6-1.4,0.7l1.7,3.2h1v0.8H189l-2-3.9h-1.4v3h1.1v0.8h-3.4V126.5z
			 M187.2,122.6c0.3,0,0.6,0,0.8-0.1c0.2-0.1,0.4-0.2,0.5-0.3c0.1-0.1,0.2-0.3,0.3-0.5c0-0.2,0.1-0.3,0.1-0.5c0-0.4-0.1-0.7-0.4-0.9
			c-0.3-0.2-0.7-0.3-1.2-0.3h-1.5v2.7H187.2z"/>
		<path class="st3" d="M198.9,126.5h1.1v-6.6h-1.1v-0.8h4c0.5,0,1,0.1,1.4,0.2c0.4,0.1,0.8,0.3,1.1,0.5c0.3,0.2,0.6,0.4,0.8,0.7
			c0.2,0.3,0.4,0.5,0.5,0.8c0.1,0.3,0.2,0.6,0.3,0.9c0.1,0.3,0.1,0.7,0.1,1c0,0.6-0.1,1.2-0.2,1.7c-0.2,0.5-0.4,1-0.8,1.3
			c-0.3,0.4-0.8,0.7-1.3,0.9s-1.2,0.3-2,0.3h-3.9V126.5z M201.2,126.5h1.8c0.5,0,1-0.1,1.3-0.3c0.4-0.2,0.7-0.4,0.9-0.7
			c0.2-0.3,0.4-0.7,0.5-1.1c0.1-0.4,0.2-0.8,0.2-1.3c0-0.4-0.1-0.9-0.2-1.3c-0.1-0.4-0.3-0.7-0.5-1c-0.2-0.3-0.6-0.5-0.9-0.7
			c-0.4-0.2-0.9-0.3-1.4-0.3h-1.6V126.5z"/>
		<path class="st3" d="M221.5,119.1v0.8h-0.7c0.3,1,0.6,1.8,0.8,2.3c0.2,0.6,0.3,1,0.4,1.1c0.2,0.5,0.4,1.1,0.5,1.6
			c0.2,0.5,0.3,1,0.4,1.5h1v0.8h-3.2v-0.8h1.1l-0.6-2.2h-3.2l-0.6,2.2h1.1v0.8h-3.2v-0.8h1c0.1-0.5,0.3-1,0.5-1.6
			c0.2-0.6,0.3-1.1,0.5-1.7c0.2-0.6,0.4-1.1,0.6-1.7c0.2-0.6,0.4-1.1,0.5-1.6h-0.7v-0.8H221.5z M220.8,123.4
			c-0.1-0.3-0.2-0.8-0.4-1.3c-0.2-0.6-0.4-1.3-0.7-2.2h-0.5c-0.3,0.9-0.5,1.6-0.7,2.2c-0.2,0.6-0.3,1-0.4,1.3H220.8z"/>
		<path class="st3" d="M231.8,126.5h1.1v-6.6h-1.1v-0.8h4c0.5,0,1,0.1,1.4,0.2c0.4,0.1,0.8,0.3,1.1,0.5c0.3,0.2,0.6,0.4,0.8,0.7
			c0.2,0.3,0.4,0.5,0.5,0.8c0.1,0.3,0.2,0.6,0.3,0.9c0.1,0.3,0.1,0.7,0.1,1c0,0.6-0.1,1.2-0.2,1.7c-0.2,0.5-0.4,1-0.8,1.3
			c-0.3,0.4-0.8,0.7-1.3,0.9s-1.2,0.3-2,0.3h-3.9V126.5z M234.1,126.5h1.8c0.5,0,1-0.1,1.3-0.3c0.4-0.2,0.7-0.4,0.9-0.7
			c0.2-0.3,0.4-0.7,0.5-1.1c0.1-0.4,0.2-0.8,0.2-1.3c0-0.4-0.1-0.9-0.2-1.3c-0.1-0.4-0.3-0.7-0.5-1c-0.2-0.3-0.6-0.5-0.9-0.7
			c-0.4-0.2-0.9-0.3-1.4-0.3h-1.6V126.5z"/>
		<path class="st3" d="M259.3,126.5h1.1v-6.6h-1.1v-0.8h3.8c0.6,0,1,0.1,1.4,0.2c0.4,0.2,0.7,0.4,0.9,0.6c0.2,0.2,0.4,0.5,0.4,0.8
			c0.1,0.3,0.1,0.6,0.1,0.9c0,0.5-0.1,0.9-0.3,1.2c-0.2,0.3-0.4,0.6-0.7,0.7c-0.3,0.2-0.7,0.3-1.1,0.4c-0.4,0.1-0.9,0.1-1.4,0.1h-1
			v2.5h1.1v0.8h-3.4V126.5z M261.5,123.2h1.3c0.4,0,0.7,0,1-0.1c0.3-0.1,0.5-0.2,0.6-0.3c0.1-0.1,0.3-0.3,0.3-0.5
			c0.1-0.2,0.1-0.4,0.1-0.7c0-0.5-0.1-0.9-0.4-1.2c-0.3-0.3-0.7-0.4-1.2-0.4h-1.6V123.2z"/>
		<path class="st3" d="M274.3,126.5h1.1v-6.6h-1.1v-0.8h7v2.3h-0.9v-1.5h-3.8v2.7h2.6v-0.8h0.7v2.6h-0.7v-0.8h-2.6v2.9h3.8V125h0.9
			v2.4h-7V126.5z"/>
		<path class="st3" d="M289.9,126.5h1.2v-6.6h-1.2v-0.8h3.9c0.5,0,0.9,0.1,1.2,0.2c0.3,0.1,0.6,0.2,0.8,0.4c0.2,0.2,0.4,0.4,0.5,0.7
			c0.1,0.3,0.2,0.6,0.2,0.9c0,0.6-0.2,1-0.5,1.4c-0.3,0.4-0.8,0.6-1.4,0.7l1.7,3.2h1v0.8h-1.8l-2-3.9h-1.4v3h1.1v0.8h-3.4V126.5z
			 M293.8,122.6c0.3,0,0.6,0,0.8-0.1c0.2-0.1,0.4-0.2,0.5-0.3c0.1-0.1,0.2-0.3,0.3-0.5c0-0.2,0.1-0.3,0.1-0.5c0-0.4-0.1-0.7-0.4-0.9
			c-0.3-0.2-0.7-0.3-1.2-0.3h-1.5v2.7H293.8z"/>
		<path class="st3" d="M305.5,126.5h1.1v-6.6h-1.1v-0.8h4c0.5,0,1,0.1,1.4,0.2c0.4,0.1,0.8,0.3,1.1,0.5c0.3,0.2,0.6,0.4,0.8,0.7
			c0.2,0.3,0.4,0.5,0.5,0.8c0.1,0.3,0.2,0.6,0.3,0.9c0.1,0.3,0.1,0.7,0.1,1c0,0.6-0.1,1.2-0.2,1.7c-0.2,0.5-0.4,1-0.8,1.3
			c-0.3,0.4-0.8,0.7-1.3,0.9s-1.2,0.3-2,0.3h-3.9V126.5z M307.8,126.5h1.8c0.5,0,1-0.1,1.3-0.3c0.4-0.2,0.7-0.4,0.9-0.7
			c0.2-0.3,0.4-0.7,0.5-1.1c0.1-0.4,0.2-0.8,0.2-1.3c0-0.4-0.1-0.9-0.2-1.3c-0.1-0.4-0.3-0.7-0.5-1c-0.2-0.3-0.6-0.5-0.9-0.7
			c-0.4-0.2-0.9-0.3-1.4-0.3h-1.6V126.5z"/>
		<path class="st3" d="M322.4,126.5h1v-6.6h-1v-0.8h3.1v0.8h-0.9v6.6h0.9v0.8h-3.1V126.5z"/>
		<path class="st3" d="M334.1,126.5h1.1v-6.6h-1.1v-0.8h4c0.5,0,1,0.1,1.4,0.2c0.4,0.1,0.8,0.3,1.1,0.5c0.3,0.2,0.6,0.4,0.8,0.7
			c0.2,0.3,0.4,0.5,0.5,0.8c0.1,0.3,0.2,0.6,0.3,0.9c0.1,0.3,0.1,0.7,0.1,1c0,0.6-0.1,1.2-0.2,1.7c-0.2,0.5-0.4,1-0.8,1.3
			c-0.3,0.4-0.8,0.7-1.3,0.9c-0.5,0.2-1.2,0.3-2,0.3h-3.9V126.5z M336.4,126.5h1.8c0.5,0,1-0.1,1.3-0.3c0.4-0.2,0.7-0.4,0.9-0.7
			c0.2-0.3,0.4-0.7,0.5-1.1c0.1-0.4,0.2-0.8,0.2-1.3c0-0.4-0.1-0.9-0.2-1.3c-0.1-0.4-0.3-0.7-0.5-1c-0.2-0.3-0.6-0.5-0.9-0.7
			c-0.4-0.2-0.9-0.3-1.4-0.3h-1.6V126.5z"/>
		<path class="st3" d="M356.7,119.1v0.8h-0.7c0.3,1,0.6,1.8,0.8,2.3c0.2,0.6,0.3,1,0.4,1.1c0.2,0.5,0.4,1.1,0.5,1.6
			c0.2,0.5,0.3,1,0.4,1.5h1v0.8h-3.2v-0.8h1.1l-0.6-2.2h-3.2l-0.6,2.2h1.1v0.8h-3.2v-0.8h1c0.1-0.5,0.3-1,0.5-1.6
			c0.2-0.6,0.3-1.1,0.5-1.7c0.2-0.6,0.4-1.1,0.6-1.7c0.2-0.6,0.4-1.1,0.5-1.6h-0.7v-0.8H356.7z M356,123.4c-0.1-0.3-0.2-0.8-0.4-1.3
			c-0.2-0.6-0.4-1.3-0.7-2.2h-0.5c-0.3,0.9-0.5,1.6-0.7,2.2c-0.2,0.6-0.3,1-0.4,1.3H356z"/>
		<path class="st3" d="M377.7,126.5h1.1v-6.6h-1.1v-0.8h4c0.5,0,1,0.1,1.4,0.2c0.4,0.1,0.8,0.3,1.1,0.5c0.3,0.2,0.6,0.4,0.8,0.7
			c0.2,0.3,0.4,0.5,0.5,0.8c0.1,0.3,0.2,0.6,0.3,0.9c0.1,0.3,0.1,0.7,0.1,1c0,0.6-0.1,1.2-0.2,1.7c-0.2,0.5-0.4,1-0.8,1.3
			c-0.3,0.4-0.8,0.7-1.3,0.9s-1.2,0.3-2,0.3h-3.9V126.5z M380,126.5h1.8c0.5,0,1-0.1,1.3-0.3c0.4-0.2,0.7-0.4,0.9-0.7
			c0.2-0.3,0.4-0.7,0.5-1.1c0.1-0.4,0.2-0.8,0.2-1.3c0-0.4-0.1-0.9-0.2-1.3c-0.1-0.4-0.3-0.7-0.5-1c-0.2-0.3-0.6-0.5-0.9-0.7
			c-0.4-0.2-0.9-0.3-1.4-0.3H380V126.5z"/>
		<path class="st3" d="M394.5,126.5h1.1v-6.6h-1.1v-0.8h7v2.3h-0.9v-1.5h-3.8v2.7h2.6v-0.8h0.7v2.6h-0.7v-0.8h-2.6v2.9h3.8V125h0.9
			v2.4h-7V126.5z"/>
		<path class="st3" d="M420.8,126.5h1.1v-6.6h-1.1v-0.8h3.4v0.8h-1.1v6.6h2.9v-2.4h1v3.2h-6.3V126.5z"/>
		<path class="st3" d="M441.4,119.1v0.8h-0.7c0.3,1,0.6,1.8,0.8,2.3c0.2,0.6,0.3,1,0.4,1.1c0.2,0.5,0.4,1.1,0.5,1.6
			c0.2,0.5,0.3,1,0.4,1.5h1v0.8h-3.2v-0.8h1.1l-0.6-2.2h-3.2l-0.6,2.2h1.1v0.8H435v-0.8h1c0.1-0.5,0.3-1,0.5-1.6
			c0.2-0.6,0.3-1.1,0.5-1.7c0.2-0.6,0.4-1.1,0.6-1.7c0.2-0.6,0.4-1.1,0.5-1.6h-0.7v-0.8H441.4z M440.8,123.4
			c-0.1-0.3-0.2-0.8-0.4-1.3c-0.2-0.6-0.4-1.3-0.7-2.2h-0.5c-0.3,0.9-0.5,1.6-0.7,2.2c-0.2,0.6-0.3,1-0.4,1.3H440.8z"/>
		<path class="st3" d="M455.1,127.5c-0.8,0-1.5-0.3-2.1-0.8v0.6h-1v-2.8h1v0.8c0.3,0.4,0.6,0.6,0.9,0.8c0.3,0.2,0.7,0.3,1.2,0.3
			c0.2,0,0.5,0,0.7-0.1c0.2-0.1,0.4-0.2,0.5-0.3c0.1-0.1,0.2-0.3,0.3-0.4c0.1-0.2,0.1-0.3,0.1-0.5c0-0.3-0.1-0.5-0.2-0.7
			c-0.1-0.2-0.3-0.3-0.5-0.4c-0.2-0.1-0.5-0.2-0.7-0.3c-0.3-0.1-0.6-0.2-0.9-0.2c-0.3-0.1-0.6-0.2-0.9-0.3c-0.3-0.1-0.5-0.3-0.8-0.4
			c-0.2-0.2-0.4-0.4-0.5-0.7c-0.1-0.3-0.2-0.6-0.2-1c0-0.4,0.1-0.7,0.2-1c0.1-0.3,0.3-0.5,0.6-0.7c0.2-0.2,0.5-0.3,0.8-0.4
			c0.3-0.1,0.7-0.1,1-0.1c0.3,0,0.7,0.1,1,0.2c0.3,0.1,0.6,0.3,0.9,0.5v-0.5h1v2.3h-1v-0.6c-0.2-0.3-0.5-0.5-0.7-0.7
			c-0.3-0.2-0.6-0.2-1-0.2c-0.3,0-0.5,0-0.7,0.1c-0.2,0.1-0.4,0.1-0.5,0.3c-0.1,0.1-0.2,0.2-0.3,0.4c-0.1,0.1-0.1,0.3-0.1,0.5
			c0,0.3,0.1,0.5,0.2,0.7c0.1,0.2,0.3,0.3,0.6,0.4c0.2,0.1,0.5,0.2,0.8,0.3c0.3,0.1,0.6,0.1,0.9,0.2c0.3,0.1,0.6,0.2,0.9,0.3
			c0.3,0.1,0.5,0.3,0.7,0.5c0.2,0.2,0.4,0.4,0.5,0.7c0.1,0.3,0.2,0.6,0.2,0.9c0,0.3-0.1,0.6-0.2,0.9c-0.1,0.3-0.3,0.5-0.6,0.7
			c-0.2,0.2-0.5,0.4-0.9,0.5C455.9,127.4,455.5,127.5,455.1,127.5z"/>
		<path class="st3" d="M477.1,126.5h1.1v-6.6h-1.1v-0.8h3.8c0.6,0,1,0.1,1.4,0.2c0.4,0.2,0.7,0.4,0.9,0.6c0.2,0.2,0.4,0.5,0.4,0.8
			c0.1,0.3,0.1,0.6,0.1,0.9c0,0.5-0.1,0.9-0.3,1.2c-0.2,0.3-0.4,0.6-0.7,0.7c-0.3,0.2-0.7,0.3-1.1,0.4c-0.4,0.1-0.9,0.1-1.4,0.1h-1
			v2.5h1.1v0.8h-3.4V126.5z M479.3,123.2h1.3c0.4,0,0.7,0,1-0.1c0.3-0.1,0.5-0.2,0.6-0.3c0.1-0.1,0.3-0.3,0.3-0.5
			c0.1-0.2,0.1-0.4,0.1-0.7c0-0.5-0.1-0.9-0.4-1.2c-0.3-0.3-0.7-0.4-1.2-0.4h-1.6V123.2z"/>
		<path class="st3" d="M492.1,126.5h1.1v-6.6h-1.1v-0.8h3.4v0.8h-1.1v6.6h2.9v-2.4h1v3.2h-6.3V126.5z"/>
		<path class="st3" d="M512.6,119.1v0.8h-0.7c0.3,1,0.6,1.8,0.8,2.3c0.2,0.6,0.3,1,0.4,1.1c0.2,0.5,0.4,1.1,0.5,1.6
			c0.2,0.5,0.3,1,0.4,1.5h1v0.8h-3.2v-0.8h1.1l-0.6-2.2H509l-0.6,2.2h1.1v0.8h-3.2v-0.8h1c0.1-0.5,0.3-1,0.5-1.6
			c0.2-0.6,0.3-1.1,0.5-1.7c0.2-0.6,0.4-1.1,0.6-1.7c0.2-0.6,0.4-1.1,0.5-1.6h-0.7v-0.8H512.6z M512,123.4c-0.1-0.3-0.2-0.8-0.4-1.3
			c-0.2-0.6-0.4-1.3-0.7-2.2h-0.5c-0.3,0.9-0.5,1.6-0.7,2.2c-0.2,0.6-0.3,1-0.4,1.3H512z"/>
		<path class="st3" d="M522.9,126.5h1.2v-6.6h-1.2v-0.8h2.7l3.9,6.8v-5.9h-1.2v-0.8h3.4v0.8h-1.2v7.4h-1.3l-4.1-7.1v6.3h1.2v0.8
			h-3.4V126.5z"/>
		<path class="st3" d="M541.5,126.5h1.3v-6.6h-1.9v1.6H540v-2.5h6.8v2.5h-0.9v-1.6H544v6.6h1.2v0.8h-3.7V126.5z"/>
		<path class="st3" d="M561,119.1v0.8h-0.7c0.3,1,0.6,1.8,0.8,2.3c0.2,0.6,0.3,1,0.4,1.1c0.2,0.5,0.4,1.1,0.5,1.6
			c0.2,0.5,0.3,1,0.4,1.5h1v0.8h-3.2v-0.8h1.1l-0.6-2.2h-3.2l-0.6,2.2h1.1v0.8h-3.2v-0.8h1c0.1-0.5,0.3-1,0.5-1.6
			c0.2-0.6,0.3-1.1,0.5-1.7c0.2-0.6,0.4-1.1,0.6-1.7c0.2-0.6,0.4-1.1,0.5-1.6H557v-0.8H561z M560.4,123.4c-0.1-0.3-0.2-0.8-0.4-1.3
			c-0.2-0.6-0.4-1.3-0.7-2.2h-0.5c-0.3,0.9-0.5,1.6-0.7,2.2c-0.2,0.6-0.3,1-0.4,1.3H560.4z"/>
		<path class="st3" d="M574.7,127.5c-0.8,0-1.5-0.3-2.1-0.8v0.6h-1v-2.8h1v0.8c0.3,0.4,0.6,0.6,0.9,0.8c0.3,0.2,0.7,0.3,1.2,0.3
			c0.2,0,0.5,0,0.7-0.1c0.2-0.1,0.4-0.2,0.5-0.3c0.1-0.1,0.2-0.3,0.3-0.4c0.1-0.2,0.1-0.3,0.1-0.5c0-0.3-0.1-0.5-0.2-0.7
			c-0.1-0.2-0.3-0.3-0.5-0.4c-0.2-0.1-0.5-0.2-0.7-0.3c-0.3-0.1-0.6-0.2-0.9-0.2c-0.3-0.1-0.6-0.2-0.9-0.3c-0.3-0.1-0.5-0.3-0.8-0.4
			c-0.2-0.2-0.4-0.4-0.5-0.7c-0.1-0.3-0.2-0.6-0.2-1c0-0.4,0.1-0.7,0.2-1c0.1-0.3,0.3-0.5,0.6-0.7c0.2-0.2,0.5-0.3,0.8-0.4
			s0.7-0.1,1-0.1c0.3,0,0.7,0.1,1,0.2c0.3,0.1,0.6,0.3,0.9,0.5v-0.5h1v2.3h-1v-0.6c-0.2-0.3-0.5-0.5-0.7-0.7c-0.3-0.2-0.6-0.2-1-0.2
			c-0.3,0-0.5,0-0.7,0.1c-0.2,0.1-0.4,0.1-0.5,0.3c-0.1,0.1-0.2,0.2-0.3,0.4c-0.1,0.1-0.1,0.3-0.1,0.5c0,0.3,0.1,0.5,0.2,0.7
			c0.1,0.2,0.3,0.3,0.6,0.4c0.2,0.1,0.5,0.2,0.8,0.3c0.3,0.1,0.6,0.1,0.9,0.2c0.3,0.1,0.6,0.2,0.9,0.3c0.3,0.1,0.5,0.3,0.7,0.5
			c0.2,0.2,0.4,0.4,0.5,0.7c0.1,0.3,0.2,0.6,0.2,0.9c0,0.3-0.1,0.6-0.2,0.9c-0.1,0.3-0.3,0.5-0.6,0.7c-0.2,0.2-0.5,0.4-0.9,0.5
			C575.5,127.4,575.1,127.5,574.7,127.5z"/>
	</g>
</g>
</svg>
