<?xml version="1.0" encoding="utf-8"?>
<!-- Generator: Adobe Illustrator 23.0.1, SVG Export Plug-In . SVG Version: 6.00 Build 0)  -->
<svg version="1.1" id="Layer_1" xmlns="http://www.w3.org/2000/svg" xmlns:xlink="http://www.w3.org/1999/xlink" x="0px" y="0px"
	 viewBox="0 0 223.8 198.4" style="enable-background:new 0 0 223.8 198.4;" xml:space="preserve">
<style type="text/css">
	.st0{fill:#61B522;stroke:#61B522;stroke-width:0.4811;stroke-miterlimit:10;}
	.st1{fill:#61B522;}
	.st2{fill:none;}
	.st3{fill:#90C25E;}
	.st4{fill:#FFFFFF;}
	.st5{fill:#E3F206;}
	.st6{fill:none;stroke:#FFFFFF;stroke-width:0.4392;stroke-miterlimit:10;}
	.st7{fill:none;stroke:#FFFFFF;stroke-width:0.4391;stroke-miterlimit:10;}
	.st8{opacity:0;}
</style>
<g>
	<g>
		<g>
			<g>
				<path class="st0" d="M31.8,147.1h0.7v-0.3h-4.9v0.3h0.8l-9.6,17.5h-2.2v0.3h4.9v-0.3h-2.3l4.6-8.4h9.2l3.9,8.4h-0.9v0.3H41v-0.3
					h-1L31.8,147.1z M24,155.9l4.8-8.8h0l4.1,8.8H24z"/>
				<path class="st0" d="M97.3,147.2H98v-0.3h-4.9v0.3h0.8l-9.6,17.5h-2.2v0.3H87v-0.3h-2.3l4.6-8.4h9.2l3.9,8.4h-0.9v0.3h4.9v-0.3
					h-1L97.3,147.2z M89.5,156l4.8-8.8h0l4.1,8.8H89.5z"/>
				<path class="st0" d="M206.7,164.7l-8.2-17.5h0.7v-0.3h-4.9v0.3h0.8l-9.6,17.5h-2.2v0.3h4.9v-0.3h-2.3l4.6-8.4h9.2l3.9,8.4h-0.9
					v0.3h4.9v-0.3H206.7z M190.7,156l4.8-8.8h0l4.1,8.8H190.7z"/>
				<polygon class="st0" points="79.3,163.3 78.8,163.3 78.8,164.7 68.2,164.7 68.2,147.2 69.1,147.2 69.1,146.9 64.3,146.9 
					64.3,147.2 65.2,147.2 65.2,164.7 64.3,164.7 64.3,165 79.3,165 79.3,165 79.3,164.7 79.3,164.7 				"/>
				<polygon class="st0" points="131.7,146.9 129.5,146.9 129.5,147.2 131.7,147.2 131.7,164.2 115.1,146.9 109.8,146.9 
					109.8,147.2 112,147.2 112,164.7 109.8,164.7 109.8,165 114.6,165 114.6,164.7 112.4,164.7 112.4,147.2 112.5,147.2 129.4,165 
					129.5,165 129.5,165 134.3,165 134.3,164.7 132.1,164.7 132.1,147.2 134.3,147.2 134.3,146.9 132.1,146.9 				"/>
				<polygon class="st0" points="137.4,146.9 137.4,148.6 137.8,148.6 137.8,147.2 144.8,147.2 144.8,164.7 143.9,164.7 143.9,165 
					148.8,165 148.8,164.7 147.8,164.7 147.8,147.2 154.7,147.2 154.7,148.6 155.1,148.6 155.1,146.9 				"/>
				<polygon class="st0" points="159.2,146.9 158.3,146.9 158.3,147.2 159.2,147.2 159.2,164.7 158.3,164.7 158.3,165 159.2,165 
					162.2,165 163.2,165 163.2,164.7 162.2,164.7 162.2,147.2 163.2,147.2 163.2,146.9 162.2,146.9 				"/>
				<path class="st0" d="M184.8,155.9c0-1.2-0.4-2.4-1.1-3.5c-0.7-1.1-1.6-2-2.9-2.9c-2.5-1.7-5.8-2.6-9.3-2.6v0h-1.2h-3h-1v0.3h1
					v17.5h-1v0.3h5.2v0c3.5,0,6.8-0.9,9.3-2.6c1.2-0.8,2.2-1.8,2.9-2.9C184.4,158.3,184.8,157.2,184.8,155.9z M171.6,164.7
					L171.6,164.7l-1.2,0v-17.5h1.2v0c7.1,0,12.9,3.9,12.9,8.7C184.5,160.7,178.7,164.7,171.6,164.7z"/>
				<path class="st0" d="M59.2,148.2c-1.3-0.9-3-1.3-4.7-1.3v0h-6.6h-3H44v0.3h0v0H45v17.5H44v0.3h0v0h4.9v-0.3h0v0h-0.9v-8.4h6.7v0
					c1.7,0,3.4-0.5,4.6-1.3c1.3-0.9,2-2.1,2-3.3C61.2,150.3,60.5,149.1,59.2,148.2z M54.5,155.9h-6.6v-8.7l6.5,0v0
					c3.6,0,6.5,2,6.5,4.4C60.9,154,58,155.9,54.5,155.9z"/>
			</g>
			<g>
				<path class="st1" d="M16.1,175.1h0.5v-2.7h-0.5v-0.3h1.4v0.3h-0.5v2.7h1.2v-1h0.4v1.3h-2.6V175.1z"/>
				<path class="st1" d="M24.5,172.1v0.3h-0.3c0.1,0.4,0.2,0.7,0.3,1c0.1,0.2,0.1,0.4,0.2,0.5c0.1,0.2,0.1,0.4,0.2,0.7
					c0.1,0.2,0.1,0.4,0.2,0.6h0.4v0.3h-1.3v-0.3h0.4l-0.2-0.9h-1.3l-0.2,0.9h0.4v0.3h-1.3v-0.3h0.4c0.1-0.2,0.1-0.4,0.2-0.7
					c0.1-0.2,0.1-0.5,0.2-0.7c0.1-0.2,0.2-0.5,0.2-0.7c0.1-0.2,0.2-0.4,0.2-0.7h-0.3v-0.3H24.5z M24.3,173.9c0-0.1-0.1-0.3-0.2-0.5
					c-0.1-0.2-0.2-0.5-0.3-0.9h-0.2c-0.1,0.4-0.2,0.7-0.3,0.9c-0.1,0.2-0.1,0.4-0.2,0.5H24.3z"/>
				<path class="st1" d="M33.4,172.4h-0.4v-0.3h1.3v0.3h-0.4l0.9,2.5l0.9-2.5h-0.4v-0.3h1.3v0.3h-0.4l-1.2,3h-0.5L33.4,172.4z"/>
				<path class="st1" d="M39.8,175.1h0.5v-2.7h-0.5v-0.3h2.9v0.9h-0.4v-0.6h-1.5v1.1h1.1v-0.3h0.3v1.1h-0.3v-0.3h-1.1v1.2h1.5v-0.6
					h0.4v1h-2.9V175.1z"/>
				<path class="st1" d="M46.2,175.1h0.5v-2.7h-0.5v-0.3h1.6c0.2,0,0.4,0,0.5,0.1c0.1,0,0.3,0.1,0.3,0.2c0.1,0.1,0.2,0.2,0.2,0.3
					c0,0.1,0.1,0.2,0.1,0.4c0,0.2-0.1,0.4-0.2,0.6c-0.1,0.1-0.3,0.3-0.6,0.3l0.7,1.3h0.4v0.3h-0.7l-0.8-1.6h-0.6v1.2h0.5v0.3h-1.4
					V175.1z M47.9,173.5c0.1,0,0.2,0,0.3-0.1c0.1,0,0.1-0.1,0.2-0.1c0-0.1,0.1-0.1,0.1-0.2c0-0.1,0-0.1,0-0.2c0-0.2-0.1-0.3-0.2-0.4
					c-0.1-0.1-0.3-0.1-0.5-0.1h-0.6v1.1H47.9z"/>
				<path class="st1" d="M52.6,175.1h0.5v-2.7h-0.5v-0.3h1.6c0.2,0,0.4,0,0.6,0.1c0.2,0,0.3,0.1,0.4,0.2c0.1,0.1,0.2,0.2,0.3,0.3
					c0.1,0.1,0.2,0.2,0.2,0.3c0.1,0.1,0.1,0.3,0.1,0.4c0,0.1,0,0.3,0,0.4c0,0.3,0,0.5-0.1,0.7c-0.1,0.2-0.2,0.4-0.3,0.5
					c-0.1,0.2-0.3,0.3-0.5,0.3s-0.5,0.1-0.8,0.1h-1.6V175.1z M53.6,175.1h0.7c0.2,0,0.4,0,0.5-0.1c0.2-0.1,0.3-0.2,0.4-0.3
					c0.1-0.1,0.2-0.3,0.2-0.4c0-0.2,0.1-0.3,0.1-0.5c0-0.2,0-0.4-0.1-0.5c0-0.2-0.1-0.3-0.2-0.4c-0.1-0.1-0.2-0.2-0.4-0.3
					c-0.2-0.1-0.4-0.1-0.6-0.1h-0.7V175.1z"/>
				<path class="st1" d="M61.9,172.1v0.3h-0.3c0.1,0.4,0.2,0.7,0.3,1c0.1,0.2,0.1,0.4,0.2,0.5c0.1,0.2,0.1,0.4,0.2,0.7
					c0.1,0.2,0.1,0.4,0.2,0.6h0.4v0.3h-1.3v-0.3H62l-0.2-0.9h-1.3l-0.2,0.9h0.4v0.3h-1.3v-0.3h0.4c0.1-0.2,0.1-0.4,0.2-0.7
					c0.1-0.2,0.1-0.5,0.2-0.7c0.1-0.2,0.2-0.5,0.2-0.7c0.1-0.2,0.2-0.4,0.2-0.7h-0.3v-0.3H61.9z M61.6,173.9c0-0.1-0.1-0.3-0.2-0.5
					c-0.1-0.2-0.2-0.5-0.3-0.9H61c-0.1,0.4-0.2,0.7-0.3,0.9c-0.1,0.2-0.1,0.4-0.2,0.5H61.6z"/>
				<path class="st1" d="M66.1,175.1h0.5v-2.7h-0.5v-0.3h1.6c0.2,0,0.4,0,0.6,0.1c0.2,0,0.3,0.1,0.4,0.2c0.1,0.1,0.2,0.2,0.3,0.3
					c0.1,0.1,0.2,0.2,0.2,0.3c0.1,0.1,0.1,0.3,0.1,0.4c0,0.1,0,0.3,0,0.4c0,0.3,0,0.5-0.1,0.7c-0.1,0.2-0.2,0.4-0.3,0.5
					c-0.1,0.2-0.3,0.3-0.5,0.3c-0.2,0.1-0.5,0.1-0.8,0.1h-1.6V175.1z M67.1,175.1h0.7c0.2,0,0.4,0,0.5-0.1c0.2-0.1,0.3-0.2,0.4-0.3
					c0.1-0.1,0.2-0.3,0.2-0.4c0-0.2,0.1-0.3,0.1-0.5c0-0.2,0-0.4-0.1-0.5c0-0.2-0.1-0.3-0.2-0.4c-0.1-0.1-0.2-0.2-0.4-0.3
					c-0.2-0.1-0.4-0.1-0.6-0.1h-0.7V175.1z"/>
				<path class="st1" d="M77.4,175.1h0.4v-2.7h-0.4v-0.3H79c0.2,0,0.4,0,0.6,0.1c0.1,0.1,0.3,0.1,0.4,0.2c0.1,0.1,0.1,0.2,0.2,0.3
					c0,0.1,0,0.2,0,0.4c0,0.2,0,0.4-0.1,0.5c-0.1,0.1-0.2,0.2-0.3,0.3c-0.1,0.1-0.3,0.1-0.4,0.2c-0.2,0-0.4,0-0.6,0h-0.4v1h0.5v0.3
					h-1.4V175.1z M78.3,173.8h0.5c0.2,0,0.3,0,0.4-0.1c0.1,0,0.2-0.1,0.2-0.1s0.1-0.1,0.1-0.2c0-0.1,0-0.2,0-0.3
					c0-0.2-0.1-0.4-0.2-0.5c-0.1-0.1-0.3-0.2-0.5-0.2h-0.7V173.8z"/>
				<path class="st1" d="M83.5,175.1H84v-2.7h-0.5v-0.3h2.9v0.9H86v-0.6h-1.5v1.1h1.1v-0.3h0.3v1.1h-0.3v-0.3h-1.1v1.2H86v-0.6h0.4
					v1h-2.9V175.1z"/>
				<path class="st1" d="M89.9,175.1h0.5v-2.7h-0.5v-0.3h1.6c0.2,0,0.4,0,0.5,0.1c0.1,0,0.3,0.1,0.3,0.2c0.1,0.1,0.2,0.2,0.2,0.3
					c0,0.1,0.1,0.2,0.1,0.4c0,0.2-0.1,0.4-0.2,0.6c-0.1,0.1-0.3,0.3-0.6,0.3l0.7,1.3H93v0.3h-0.7l-0.8-1.6h-0.6v1.2h0.5v0.3h-1.4
					V175.1z M91.5,173.5c0.1,0,0.2,0,0.3-0.1c0.1,0,0.1-0.1,0.2-0.1c0-0.1,0.1-0.1,0.1-0.2c0-0.1,0-0.1,0-0.2c0-0.2-0.1-0.3-0.2-0.4
					c-0.1-0.1-0.3-0.1-0.5-0.1h-0.6v1.1H91.5z"/>
				<path class="st1" d="M96.3,175.1h0.5v-2.7h-0.5v-0.3h1.6c0.2,0,0.4,0,0.6,0.1c0.2,0,0.3,0.1,0.4,0.2c0.1,0.1,0.2,0.2,0.3,0.3
					c0.1,0.1,0.2,0.2,0.2,0.3c0.1,0.1,0.1,0.3,0.1,0.4c0,0.1,0,0.3,0,0.4c0,0.3,0,0.5-0.1,0.7c-0.1,0.2-0.2,0.4-0.3,0.5
					c-0.1,0.2-0.3,0.3-0.5,0.3c-0.2,0.1-0.5,0.1-0.8,0.1h-1.6V175.1z M97.3,175.1H98c0.2,0,0.4,0,0.5-0.1c0.2-0.1,0.3-0.2,0.4-0.3
					c0.1-0.1,0.2-0.3,0.2-0.4c0-0.2,0.1-0.3,0.1-0.5c0-0.2,0-0.4-0.1-0.5c0-0.2-0.1-0.3-0.2-0.4c-0.1-0.1-0.2-0.2-0.4-0.3
					c-0.2-0.1-0.4-0.1-0.6-0.1h-0.7V175.1z"/>
				<path class="st1" d="M103.2,175.1h0.4v-2.7h-0.4v-0.3h1.3v0.3h-0.4v2.7h0.4v0.3h-1.3V175.1z"/>
				<path class="st1" d="M108,175.1h0.5v-2.7H108v-0.3h1.6c0.2,0,0.4,0,0.6,0.1c0.2,0,0.3,0.1,0.4,0.2c0.1,0.1,0.2,0.2,0.3,0.3
					c0.1,0.1,0.2,0.2,0.2,0.3c0.1,0.1,0.1,0.3,0.1,0.4c0,0.1,0,0.3,0,0.4c0,0.3,0,0.5-0.1,0.7c-0.1,0.2-0.2,0.4-0.3,0.5
					c-0.1,0.2-0.3,0.3-0.5,0.3c-0.2,0.1-0.5,0.1-0.8,0.1H108V175.1z M109,175.1h0.7c0.2,0,0.4,0,0.5-0.1c0.2-0.1,0.3-0.2,0.4-0.3
					c0.1-0.1,0.2-0.3,0.2-0.4c0-0.2,0.1-0.3,0.1-0.5c0-0.2,0-0.4-0.1-0.5c0-0.2-0.1-0.3-0.2-0.4c-0.1-0.1-0.2-0.2-0.4-0.3
					c-0.2-0.1-0.4-0.1-0.6-0.1H109V175.1z"/>
				<path class="st1" d="M117.3,172.1v0.3H117c0.1,0.4,0.2,0.7,0.3,1c0.1,0.2,0.1,0.4,0.2,0.5c0.1,0.2,0.1,0.4,0.2,0.7
					c0.1,0.2,0.1,0.4,0.2,0.6h0.4v0.3h-1.3v-0.3h0.4l-0.2-0.9h-1.3l-0.2,0.9h0.4v0.3h-1.3v-0.3h0.4c0.1-0.2,0.1-0.4,0.2-0.7
					c0.1-0.2,0.1-0.5,0.2-0.7c0.1-0.2,0.2-0.5,0.2-0.7c0.1-0.2,0.2-0.4,0.2-0.7h-0.3v-0.3H117.3z M117,173.9c0-0.1-0.1-0.3-0.2-0.5
					c-0.1-0.2-0.2-0.5-0.3-0.9h-0.2c-0.1,0.4-0.2,0.7-0.3,0.9c-0.1,0.2-0.1,0.4-0.2,0.5H117z"/>
				<path class="st1" d="M125.9,175.1h0.5v-2.7h-0.5v-0.3h1.6c0.2,0,0.4,0,0.6,0.1c0.2,0,0.3,0.1,0.4,0.2c0.1,0.1,0.2,0.2,0.3,0.3
					c0.1,0.1,0.2,0.2,0.2,0.3c0.1,0.1,0.1,0.3,0.1,0.4c0,0.1,0,0.3,0,0.4c0,0.3,0,0.5-0.1,0.7c-0.1,0.2-0.2,0.4-0.3,0.5
					c-0.1,0.2-0.3,0.3-0.5,0.3c-0.2,0.1-0.5,0.1-0.8,0.1h-1.6V175.1z M126.8,175.1h0.7c0.2,0,0.4,0,0.5-0.1c0.2-0.1,0.3-0.2,0.4-0.3
					c0.1-0.1,0.2-0.3,0.2-0.4c0-0.2,0.1-0.3,0.1-0.5c0-0.2,0-0.4-0.1-0.5c0-0.2-0.1-0.3-0.2-0.4c-0.1-0.1-0.2-0.2-0.4-0.3
					c-0.2-0.1-0.4-0.1-0.6-0.1h-0.7V175.1z"/>
				<path class="st1" d="M132.8,175.1h0.5v-2.7h-0.5v-0.3h2.9v0.9h-0.4v-0.6h-1.5v1.1h1.1v-0.3h0.3v1.1h-0.3v-0.3h-1.1v1.2h1.5v-0.6
					h0.4v1h-2.9V175.1z"/>
				<path class="st1" d="M143.6,175.1h0.5v-2.7h-0.5v-0.3h1.4v0.3h-0.5v2.7h1.2v-1h0.4v1.3h-2.6V175.1z"/>
				<path class="st1" d="M152,172.1v0.3h-0.3c0.1,0.4,0.2,0.7,0.3,1c0.1,0.2,0.1,0.4,0.2,0.5c0.1,0.2,0.1,0.4,0.2,0.7
					c0.1,0.2,0.1,0.4,0.2,0.6h0.4v0.3h-1.3v-0.3h0.4l-0.2-0.9h-1.3l-0.2,0.9h0.4v0.3h-1.3v-0.3h0.4c0.1-0.2,0.1-0.4,0.2-0.7
					c0.1-0.2,0.1-0.5,0.2-0.7c0.1-0.2,0.2-0.5,0.2-0.7c0.1-0.2,0.2-0.4,0.2-0.7h-0.3v-0.3H152z M151.7,173.9c0-0.1-0.1-0.3-0.2-0.5
					c-0.1-0.2-0.2-0.5-0.3-0.9H151c-0.1,0.4-0.2,0.7-0.3,0.9c-0.1,0.2-0.1,0.4-0.2,0.5H151.7z"/>
				<path class="st1" d="M157.6,175.5c-0.3,0-0.6-0.1-0.9-0.3v0.3h-0.4v-1.1h0.4v0.3c0.1,0.2,0.2,0.3,0.4,0.3
					c0.1,0.1,0.3,0.1,0.5,0.1c0.1,0,0.2,0,0.3,0c0.1,0,0.1-0.1,0.2-0.1c0.1,0,0.1-0.1,0.1-0.2c0-0.1,0-0.1,0-0.2
					c0-0.1,0-0.2-0.1-0.3c0-0.1-0.1-0.1-0.2-0.2c-0.1,0-0.2-0.1-0.3-0.1c-0.1,0-0.2-0.1-0.4-0.1c-0.1,0-0.3-0.1-0.4-0.1
					c-0.1,0-0.2-0.1-0.3-0.2c-0.1-0.1-0.2-0.2-0.2-0.3c-0.1-0.1-0.1-0.2-0.1-0.4c0-0.2,0-0.3,0.1-0.4c0.1-0.1,0.1-0.2,0.2-0.3
					c0.1-0.1,0.2-0.1,0.3-0.2c0.1,0,0.3-0.1,0.4-0.1c0.1,0,0.3,0,0.4,0.1c0.1,0,0.3,0.1,0.4,0.2v-0.2h0.4v1h-0.4v-0.2
					c-0.1-0.1-0.2-0.2-0.3-0.3c-0.1-0.1-0.2-0.1-0.4-0.1c-0.1,0-0.2,0-0.3,0c-0.1,0-0.2,0.1-0.2,0.1c-0.1,0-0.1,0.1-0.1,0.2
					c0,0.1,0,0.1,0,0.2c0,0.1,0,0.2,0.1,0.3c0.1,0.1,0.1,0.1,0.2,0.2c0.1,0,0.2,0.1,0.3,0.1c0.1,0,0.3,0.1,0.4,0.1
					c0.1,0,0.2,0.1,0.3,0.1c0.1,0.1,0.2,0.1,0.3,0.2c0.1,0.1,0.1,0.2,0.2,0.3c0,0.1,0.1,0.2,0.1,0.4c0,0.1,0,0.3-0.1,0.4
					c-0.1,0.1-0.1,0.2-0.2,0.3c-0.1,0.1-0.2,0.2-0.4,0.2C157.9,175.5,157.8,175.5,157.6,175.5z"/>
				<path class="st1" d="M166.6,175.1h0.4v-2.7h-0.4v-0.3h1.6c0.2,0,0.4,0,0.6,0.1c0.1,0.1,0.3,0.1,0.4,0.2c0.1,0.1,0.1,0.2,0.2,0.3
					c0,0.1,0,0.2,0,0.4c0,0.2,0,0.4-0.1,0.5c-0.1,0.1-0.2,0.2-0.3,0.3c-0.1,0.1-0.3,0.1-0.4,0.2c-0.2,0-0.4,0-0.6,0h-0.4v1h0.5v0.3
					h-1.4V175.1z M167.5,173.8h0.5c0.2,0,0.3,0,0.4-0.1c0.1,0,0.2-0.1,0.2-0.1s0.1-0.1,0.1-0.2c0-0.1,0-0.2,0-0.3
					c0-0.2-0.1-0.4-0.2-0.5c-0.1-0.1-0.3-0.2-0.5-0.2h-0.7V173.8z"/>
				<path class="st1" d="M172.7,175.1h0.5v-2.7h-0.5v-0.3h1.4v0.3h-0.5v2.7h1.2v-1h0.4v1.3h-2.6V175.1z"/>
				<path class="st1" d="M181.2,172.1v0.3h-0.3c0.1,0.4,0.2,0.7,0.3,1c0.1,0.2,0.1,0.4,0.2,0.5c0.1,0.2,0.1,0.4,0.2,0.7
					c0.1,0.2,0.1,0.4,0.2,0.6h0.4v0.3h-1.3v-0.3h0.4l-0.2-0.9h-1.3l-0.2,0.9h0.4v0.3h-1.3v-0.3h0.4c0.1-0.2,0.1-0.4,0.2-0.7
					c0.1-0.2,0.1-0.5,0.2-0.7c0.1-0.2,0.2-0.5,0.2-0.7c0.1-0.2,0.2-0.4,0.2-0.7h-0.3v-0.3H181.2z M180.9,173.9
					c0-0.1-0.1-0.3-0.2-0.5c-0.1-0.2-0.2-0.5-0.3-0.9h-0.2c-0.1,0.4-0.2,0.7-0.3,0.9c-0.1,0.2-0.1,0.4-0.2,0.5H180.9z"/>
				<path class="st1" d="M185.4,175.1h0.5v-2.7h-0.5v-0.3h1.1l1.6,2.8v-2.4h-0.5v-0.3h1.4v0.3h-0.5v3H188l-1.7-2.9v2.6h0.5v0.3h-1.4
					V175.1z"/>
				<path class="st1" d="M193,175.1h0.5v-2.7h-0.8v0.7h-0.4v-1h2.8v1h-0.4v-0.7H194v2.7h0.5v0.3H193V175.1z"/>
				<path class="st1" d="M201,172.1v0.3h-0.3c0.1,0.4,0.2,0.7,0.3,1c0.1,0.2,0.1,0.4,0.2,0.5c0.1,0.2,0.1,0.4,0.2,0.7
					c0.1,0.2,0.1,0.4,0.2,0.6h0.4v0.3h-1.3v-0.3h0.4l-0.2-0.9h-1.3l-0.2,0.9h0.4v0.3h-1.3v-0.3h0.4c0.1-0.2,0.1-0.4,0.2-0.7
					c0.1-0.2,0.1-0.5,0.2-0.7c0.1-0.2,0.2-0.5,0.2-0.7c0.1-0.2,0.2-0.4,0.2-0.7h-0.3v-0.3H201z M200.7,173.9c0-0.1-0.1-0.3-0.2-0.5
					c-0.1-0.2-0.2-0.5-0.3-0.9H200c-0.1,0.4-0.2,0.7-0.3,0.9c-0.1,0.2-0.1,0.4-0.2,0.5H200.7z"/>
				<path class="st1" d="M206.6,175.5c-0.3,0-0.6-0.1-0.9-0.3v0.3h-0.4v-1.1h0.4v0.3c0.1,0.2,0.2,0.3,0.4,0.3
					c0.1,0.1,0.3,0.1,0.5,0.1c0.1,0,0.2,0,0.3,0c0.1,0,0.1-0.1,0.2-0.1c0.1,0,0.1-0.1,0.1-0.2c0-0.1,0-0.1,0-0.2
					c0-0.1,0-0.2-0.1-0.3c0-0.1-0.1-0.1-0.2-0.2c-0.1,0-0.2-0.1-0.3-0.1c-0.1,0-0.2-0.1-0.4-0.1c-0.1,0-0.3-0.1-0.4-0.1
					c-0.1,0-0.2-0.1-0.3-0.2c-0.1-0.1-0.2-0.2-0.2-0.3c-0.1-0.1-0.1-0.2-0.1-0.4c0-0.2,0-0.3,0.1-0.4c0.1-0.1,0.1-0.2,0.2-0.3
					c0.1-0.1,0.2-0.1,0.3-0.2c0.1,0,0.3-0.1,0.4-0.1c0.1,0,0.3,0,0.4,0.1c0.1,0,0.3,0.1,0.4,0.2v-0.2h0.4v1h-0.4v-0.2
					c-0.1-0.1-0.2-0.2-0.3-0.3c-0.1-0.1-0.2-0.1-0.4-0.1c-0.1,0-0.2,0-0.3,0c-0.1,0-0.2,0.1-0.2,0.1c-0.1,0-0.1,0.1-0.1,0.2
					c0,0.1,0,0.1,0,0.2c0,0.1,0,0.2,0.1,0.3c0.1,0.1,0.1,0.1,0.2,0.2c0.1,0,0.2,0.1,0.3,0.1c0.1,0,0.3,0.1,0.4,0.1
					c0.1,0,0.2,0.1,0.3,0.1c0.1,0.1,0.2,0.1,0.3,0.2c0.1,0.1,0.1,0.2,0.2,0.3c0,0.1,0.1,0.2,0.1,0.4c0,0.1,0,0.3-0.1,0.4
					c-0.1,0.1-0.1,0.2-0.2,0.3c-0.1,0.1-0.2,0.2-0.4,0.2C206.9,175.5,206.7,175.5,206.6,175.5z"/>
			</g>
		</g>
	</g>
	<g>
		<g>
			<polygon class="st2" points="111.9,78.3 111.9,78.3 111.9,78.3 111.9,78.3 111.9,78.3 111.9,78.3 111.9,78.3 111.9,78.3 
				111.9,78.3 111.9,78.3 111.9,78.3 111.9,78.3 			"/>
			<path class="st3" d="M111.9,52.7c2-3.4,4.9-6.4,8.6-8.6c4-2.4,8.4-3.5,12.8-3.5c-4.3-7.3-12.3-12.1-21.4-12.1s-17,4.9-21.4,12.1
				c4.4,0,8.8,1.1,12.8,3.5C107,46.3,109.9,49.3,111.9,52.7z"/>
			<polygon class="st4" points="111.9,78.3 111.9,78.3 111.9,78.3 111.9,78.3 			"/>
			<polygon class="st4" points="111.9,78.3 111.9,78.3 111.9,78.3 111.9,78.3 			"/>
			<path class="st3" d="M111.9,103.8c-2,3.4-4.9,6.4-8.6,8.6c-4,2.4-8.4,3.5-12.8,3.5c4.3,7.3,12.3,12.1,21.4,12.1s17-4.9,21.4-12.1
				c-4.4,0-8.8-1.1-12.8-3.5C116.9,110.2,114,107.2,111.9,103.8z"/>
			<polygon class="st4" points="111.9,78.3 111.9,78.3 111.9,78.3 111.9,78.3 			"/>
			<path class="st3" d="M77.8,69.7c4-2.4,8.4-3.5,12.8-3.5c-2.2-3.7-3.5-8.1-3.5-12.8c0-4.7,1.3-9,3.5-12.8
				c-8.5,0-16.7,4.3-21.4,12.1c-4.9,8.1-4.5,17.9,0,25.6C71.3,74.9,74.1,71.9,77.8,69.7z"/>
			<path class="st1" d="M90.6,66.2c8.4,0,16.7,4.3,21.3,12.1c0,0,0,0,0,0c0,0,0,0,0,0c-4.9-8.1-4.5-17.9,0-25.5
				c-2-3.4-4.9-6.4-8.6-8.6c-4-2.4-8.4-3.5-12.8-3.5c-2.2,3.7-3.5,8.1-3.5,12.8C87.1,58.1,88.3,62.4,90.6,66.2z"/>
			<polygon class="st4" points="111.9,78.3 111.9,78.3 111.9,78.3 111.9,78.3 			"/>
			<path class="st3" d="M146.1,86.8c-4,2.4-8.4,3.5-12.8,3.5c2.2,3.7,3.5,8.1,3.5,12.8c0,4.7-1.3,9-3.5,12.8
				c8.5,0,16.7-4.3,21.4-12.1c4.9-8.1,4.5-17.9,0-25.6C152.6,81.7,149.7,84.7,146.1,86.8z"/>
			<path class="st1" d="M133.3,90.4c-8.4,0-16.7-4.3-21.3-12.1c0,0,0,0,0,0c0,0,0,0,0,0c4.9,8.1,4.5,17.9,0,25.5
				c2,3.4,4.9,6.4,8.6,8.6c4,2.4,8.4,3.5,12.8,3.5c2.2-3.7,3.5-8.1,3.5-12.8C136.8,98.5,135.5,94.1,133.3,90.4z"/>
			<polygon class="st4" points="111.9,78.3 111.9,78.3 111.9,78.3 111.9,78.3 			"/>
			<path class="st3" d="M133.3,66.2c4.4,0,8.8,1.1,12.8,3.5c3.7,2.2,6.5,5.2,8.6,8.6c4.5-7.6,4.9-17.4,0-25.6
				c-4.7-7.8-12.9-12.1-21.4-12.1c2.2,3.7,3.5,8.1,3.5,12.8C136.8,58.1,135.5,62.4,133.3,66.2z"/>
			<path class="st1" d="M111.9,52.7c4.5,7.6,4.9,17.4,0,25.5c0,0,0,0,0,0c0,0,0,0,0,0c4.7-7.8,12.9-12.1,21.3-12.1
				c2.2-3.7,3.5-8.1,3.5-12.8c0-4.7-1.3-9-3.5-12.8c-4.4,0-8.8,1.1-12.8,3.5C116.9,46.3,114,49.3,111.9,52.7z"/>
			<path class="st5" d="M111.9,52.7c-4.5,7.6-4.9,17.4,0,25.5C116.8,70.1,116.5,60.3,111.9,52.7z"/>
			<path class="st1" d="M146.1,69.7c-4-2.4-8.4-3.5-12.8-3.5c-4.3,7.2-12.3,12.1-21.3,12.1c0,0,0,0,0,0c0,0,0,0,0,0
				c9.1,0,17,4.9,21.3,12.1c4.4,0,8.8-1.1,12.8-3.5c3.7-2.2,6.5-5.2,8.6-8.6C152.6,74.9,149.7,71.9,146.1,69.7z"/>
			<path class="st5" d="M133.3,66.2c-8.4,0-16.7,4.3-21.3,12.1C121,78.3,128.9,73.4,133.3,66.2z"/>
			<path class="st5" d="M111.9,78.3c4.7,7.8,12.9,12.1,21.3,12.1C128.9,83.1,121,78.3,111.9,78.3z"/>
			<path class="st3" d="M90.6,90.4c-4.4,0-8.8-1.1-12.8-3.5c-3.7-2.2-6.5-5.2-8.6-8.6c-4.5,7.6-4.9,17.4,0,25.6
				c4.7,7.8,12.9,12.1,21.4,12.1c-2.2-3.7-3.5-8.1-3.5-12.8C87.1,98.5,88.3,94.1,90.6,90.4z"/>
			<polygon class="st4" points="111.9,78.3 111.9,78.3 111.9,78.3 111.9,78.3 			"/>
			<path class="st1" d="M111.9,103.8c-4.5-7.6-4.9-17.4,0-25.5c0,0,0,0,0,0c0,0,0,0,0,0c-4.7,7.8-12.9,12.1-21.3,12.1
				c-2.2,3.7-3.5,8.1-3.5,12.8c0,4.7,1.3,9,3.5,12.8c4.4,0,8.8-1.1,12.8-3.5C107,110.2,109.9,107.2,111.9,103.8z"/>
			<path class="st1" d="M77.8,86.8c4,2.4,8.4,3.5,12.8,3.5c4.3-7.2,12.3-12.1,21.3-12.1c0,0,0,0,0,0c0,0,0,0,0,0
				c-9.1,0-17-4.9-21.3-12.1c-4.4,0-8.8,1.1-12.8,3.5c-3.7,2.2-6.5,5.2-8.6,8.6C71.3,81.7,74.1,84.7,77.8,86.8z"/>
			<path class="st5" d="M90.6,66.2c4.3,7.2,12.3,12.1,21.3,12.1C107.3,70.5,99,66.2,90.6,66.2z"/>
			<path class="st5" d="M90.6,90.4c8.4,0,16.7-4.3,21.3-12.1C102.9,78.3,94.9,83.1,90.6,90.4z"/>
			<path class="st5" d="M111.9,103.8c4.5-7.6,4.9-17.4,0-25.5C107.1,86.4,107.4,96.2,111.9,103.8z"/>
		</g>
		<g>
			<g>
				<circle class="st6" cx="111.9" cy="53.4" r="24.9"/>
				<circle class="st7" cx="111.9" cy="103.2" r="24.9"/>
			</g>
			<g>
				<circle class="st7" cx="90.6" cy="65.5" r="24.9"/>
				<circle class="st7" cx="133.3" cy="91.1" r="24.9"/>
			</g>
			<g>
				<circle class="st7" cx="133.3" cy="65.5" r="24.9"/>
				<circle class="st7" cx="90.6" cy="91.1" r="24.9"/>
			</g>
		</g>
		<g class="st8">
			<g>
				<path class="st1" d="M111.9,28.4c27.5,0,49.8,22.3,49.8,49.8S139.4,128,111.9,128c-27.5,0-49.8-22.3-49.8-49.8
					S84.4,28.4,111.9,28.4 M111.9,26.6c-28.5,0-51.7,23.2-51.7,51.7s23.2,51.7,51.7,51.7s51.7-23.2,51.7-51.7S140.4,26.6,111.9,26.6
					L111.9,26.6z"/>
			</g>
		</g>
	</g>
</g>
</svg>
